<mxfile host="app.diagrams.net" modified="2024-06-21T05:55:32.372Z" agent="Mozilla/5.0 (Windows NT 10.0; Win64; x64) AppleWebKit/537.36 (KHTML, like Gecko) Chrome/126.0.0.0 Safari/537.36" etag="iD7ZCu3mTAcDxBs7PGst" version="24.5.5" type="github">
  <diagram name="第 1 页" id="9ap33cPlft10K6oumX3_">
    <mxGraphModel dx="1356" dy="786" grid="1" gridSize="10" guides="1" tooltips="1" connect="1" arrows="1" fold="1" page="1" pageScale="1" pageWidth="1920" pageHeight="1200" background="none" math="0" shadow="1">
      <root>
        <mxCell id="0" />
        <mxCell id="1" parent="0" />
        <mxCell id="rnnV2Wn77IljhFdbSdpm-1" value="" style="rounded=0;whiteSpace=wrap;html=1;fillColor=#66FFFF;shadow=0;labelBorderColor=none;strokeColor=none;" vertex="1" parent="1">
          <mxGeometry x="320" y="190" width="120" height="270" as="geometry" />
        </mxCell>
        <mxCell id="rnnV2Wn77IljhFdbSdpm-2" value="&lt;font style=&quot;font-size: 24px;&quot;&gt;&lt;b style&gt;单体工程&lt;/b&gt;&lt;/font&gt;" style="rounded=1;whiteSpace=wrap;html=1;fillColor=#66FFFF;labelBorderColor=#66FFFF;strokeColor=none;" vertex="1" parent="1">
          <mxGeometry x="100" y="190" width="120" height="270" as="geometry" />
        </mxCell>
        <mxCell id="rnnV2Wn77IljhFdbSdpm-3" value="" style="shape=mxgraph.flowchart.transfer;whiteSpace=wrap;html=1;fillColor=#ffffff;strokeColor=#000000;strokeWidth=2" vertex="1" parent="1">
          <mxGeometry x="230" y="302.5" width="80" height="45" as="geometry" />
        </mxCell>
        <mxCell id="rnnV2Wn77IljhFdbSdpm-4" style="edgeStyle=orthogonalEdgeStyle;rounded=0;orthogonalLoop=1;jettySize=auto;html=1;entryX=0;entryY=0.5;entryDx=0;entryDy=0;strokeColor=#000000;" edge="1" parent="1" source="rnnV2Wn77IljhFdbSdpm-6" target="rnnV2Wn77IljhFdbSdpm-13">
          <mxGeometry relative="1" as="geometry" />
        </mxCell>
        <mxCell id="rnnV2Wn77IljhFdbSdpm-5" style="edgeStyle=orthogonalEdgeStyle;rounded=0;orthogonalLoop=1;jettySize=auto;html=1;entryX=0;entryY=0.5;entryDx=0;entryDy=0;strokeColor=#000000;" edge="1" parent="1" source="rnnV2Wn77IljhFdbSdpm-6" target="rnnV2Wn77IljhFdbSdpm-16">
          <mxGeometry relative="1" as="geometry" />
        </mxCell>
        <mxCell id="rnnV2Wn77IljhFdbSdpm-6" value="app-1" style="rounded=1;whiteSpace=wrap;html=1;strokeColor=none;" vertex="1" parent="1">
          <mxGeometry x="335" y="206" width="90" height="40" as="geometry" />
        </mxCell>
        <mxCell id="rnnV2Wn77IljhFdbSdpm-7" style="edgeStyle=orthogonalEdgeStyle;rounded=0;orthogonalLoop=1;jettySize=auto;html=1;exitX=1;exitY=0.5;exitDx=0;exitDy=0;entryX=0;entryY=0.5;entryDx=0;entryDy=0;strokeColor=#000000;" edge="1" parent="1" source="rnnV2Wn77IljhFdbSdpm-8" target="rnnV2Wn77IljhFdbSdpm-17">
          <mxGeometry relative="1" as="geometry" />
        </mxCell>
        <mxCell id="rnnV2Wn77IljhFdbSdpm-8" value="app-2" style="rounded=1;whiteSpace=wrap;html=1;strokeColor=none;" vertex="1" parent="1">
          <mxGeometry x="335" y="256" width="90" height="40" as="geometry" />
        </mxCell>
        <mxCell id="rnnV2Wn77IljhFdbSdpm-9" value="app-3" style="rounded=1;whiteSpace=wrap;html=1;strokeColor=none;" vertex="1" parent="1">
          <mxGeometry x="335" y="306" width="90" height="40" as="geometry" />
        </mxCell>
        <mxCell id="rnnV2Wn77IljhFdbSdpm-10" value="app-4" style="rounded=1;whiteSpace=wrap;html=1;strokeColor=none;" vertex="1" parent="1">
          <mxGeometry x="335" y="390" width="90" height="40" as="geometry" />
        </mxCell>
        <mxCell id="rnnV2Wn77IljhFdbSdpm-11" value="&lt;b&gt;&lt;font style=&quot;font-size: 24px;&quot;&gt;······&lt;/font&gt;&lt;/b&gt;" style="text;html=1;strokeColor=none;fillColor=none;align=center;verticalAlign=middle;whiteSpace=wrap;rounded=0;" vertex="1" parent="1">
          <mxGeometry x="360" y="360" width="40" height="20" as="geometry" />
        </mxCell>
        <mxCell id="rnnV2Wn77IljhFdbSdpm-12" style="edgeStyle=orthogonalEdgeStyle;rounded=0;orthogonalLoop=1;jettySize=auto;html=1;exitX=1;exitY=0.5;exitDx=0;exitDy=0;entryX=0;entryY=0.5;entryDx=0;entryDy=0;strokeColor=#000000;" edge="1" parent="1" source="rnnV2Wn77IljhFdbSdpm-13" target="rnnV2Wn77IljhFdbSdpm-18">
          <mxGeometry relative="1" as="geometry" />
        </mxCell>
        <mxCell id="rnnV2Wn77IljhFdbSdpm-13" value="service-1" style="rounded=1;whiteSpace=wrap;html=1;fillColor=#99FFCC;strokeColor=none;" vertex="1" parent="1">
          <mxGeometry x="500" y="183" width="100" height="36" as="geometry" />
        </mxCell>
        <mxCell id="rnnV2Wn77IljhFdbSdpm-14" style="edgeStyle=orthogonalEdgeStyle;rounded=0;orthogonalLoop=1;jettySize=auto;html=1;exitX=1;exitY=0.5;exitDx=0;exitDy=0;entryX=0;entryY=0.5;entryDx=0;entryDy=0;strokeColor=#000000;" edge="1" parent="1" source="rnnV2Wn77IljhFdbSdpm-16" target="rnnV2Wn77IljhFdbSdpm-19">
          <mxGeometry relative="1" as="geometry" />
        </mxCell>
        <mxCell id="rnnV2Wn77IljhFdbSdpm-15" style="edgeStyle=orthogonalEdgeStyle;rounded=0;orthogonalLoop=1;jettySize=auto;html=1;entryX=0;entryY=0.5;entryDx=0;entryDy=0;strokeColor=#000000;" edge="1" parent="1" source="rnnV2Wn77IljhFdbSdpm-16" target="rnnV2Wn77IljhFdbSdpm-20">
          <mxGeometry relative="1" as="geometry" />
        </mxCell>
        <mxCell id="rnnV2Wn77IljhFdbSdpm-16" value="service-2" style="rounded=1;whiteSpace=wrap;html=1;fillColor=#99FFCC;strokeColor=none;" vertex="1" parent="1">
          <mxGeometry x="500" y="233" width="100" height="36" as="geometry" />
        </mxCell>
        <mxCell id="rnnV2Wn77IljhFdbSdpm-17" value="service-3" style="rounded=1;whiteSpace=wrap;html=1;fillColor=#99FFCC;strokeColor=none;" vertex="1" parent="1">
          <mxGeometry x="500" y="311.5" width="100" height="36" as="geometry" />
        </mxCell>
        <mxCell id="rnnV2Wn77IljhFdbSdpm-18" value="api-x" style="rounded=1;whiteSpace=wrap;html=1;fillColor=#FFE6CC;strokeColor=none;" vertex="1" parent="1">
          <mxGeometry x="660" y="183" width="70" height="36" as="geometry" />
        </mxCell>
        <mxCell id="rnnV2Wn77IljhFdbSdpm-19" value="api-y" style="rounded=1;whiteSpace=wrap;html=1;fillColor=#FFE6CC;strokeColor=none;" vertex="1" parent="1">
          <mxGeometry x="660" y="233" width="70" height="36" as="geometry" />
        </mxCell>
        <mxCell id="rnnV2Wn77IljhFdbSdpm-20" value="api-z" style="rounded=1;whiteSpace=wrap;html=1;fillColor=#FFE6CC;strokeColor=none;" vertex="1" parent="1">
          <mxGeometry x="660" y="275.5" width="70" height="36" as="geometry" />
        </mxCell>
        <mxCell id="rnnV2Wn77IljhFdbSdpm-21" value="&lt;b&gt;&lt;font style=&quot;font-size: 24px;&quot;&gt;······&lt;/font&gt;&lt;/b&gt;" style="text;html=1;strokeColor=none;fillColor=none;align=center;verticalAlign=middle;whiteSpace=wrap;rounded=0;" vertex="1" parent="1">
          <mxGeometry x="530" y="380" width="40" height="20" as="geometry" />
        </mxCell>
        <mxCell id="rnnV2Wn77IljhFdbSdpm-22" value="&lt;b&gt;&lt;font style=&quot;font-size: 24px;&quot;&gt;······&lt;/font&gt;&lt;/b&gt;" style="text;html=1;strokeColor=none;fillColor=none;align=center;verticalAlign=middle;whiteSpace=wrap;rounded=0;" vertex="1" parent="1">
          <mxGeometry x="675" y="340" width="40" height="20" as="geometry" />
        </mxCell>
        <mxCell id="rnnV2Wn77IljhFdbSdpm-23" value="&lt;font style=&quot;font-size: 24px;&quot;&gt;服务化应用&lt;/font&gt;" style="text;html=1;strokeColor=none;fillColor=none;align=center;verticalAlign=middle;whiteSpace=wrap;rounded=0;" vertex="1" parent="1">
          <mxGeometry x="315" y="140" width="130" height="40" as="geometry" />
        </mxCell>
        <mxCell id="rnnV2Wn77IljhFdbSdpm-24" value="&lt;font style=&quot;font-size: 24px;&quot;&gt;服务化API&lt;/font&gt;" style="text;html=1;strokeColor=none;fillColor=none;align=center;verticalAlign=middle;whiteSpace=wrap;rounded=0;" vertex="1" parent="1">
          <mxGeometry x="580" y="130" width="130" height="40" as="geometry" />
        </mxCell>
      </root>
    </mxGraphModel>
  </diagram>
</mxfile>
